<mxfile host="app.diagrams.net" modified="2024-03-22T14:45:19.222Z" agent="Mozilla/5.0 (Macintosh; Intel Mac OS X 10_15_7) AppleWebKit/537.36 (KHTML, like Gecko) Chrome/123.0.0.0 Safari/537.36" etag="ZKmSbZ4ov0RIW0bIyNbs" version="24.0.8" type="github">
  <diagram name="第 1 页" id="nWjYp3VP0Mg2dlhJJIbN">
    <mxGraphModel dx="2074" dy="1155" grid="1" gridSize="10" guides="1" tooltips="1" connect="1" arrows="1" fold="1" page="1" pageScale="1" pageWidth="827" pageHeight="1169" math="0" shadow="0">
      <root>
        <mxCell id="0" />
        <mxCell id="1" parent="0" />
        <mxCell id="spPprOGRTO-mnFSZIr9q-3" value="" style="rounded=0;whiteSpace=wrap;html=1;fillColor=#dae8fc;strokeColor=#6c8ebf;" vertex="1" parent="1">
          <mxGeometry x="90" y="560" width="150" height="280" as="geometry" />
        </mxCell>
        <mxCell id="spPprOGRTO-mnFSZIr9q-2" value="&lt;span style=&quot;text-align: center;&quot;&gt;对象管理&lt;/span&gt;" style="text;html=1;align=left;verticalAlign=middle;whiteSpace=wrap;rounded=0;" vertex="1" parent="1">
          <mxGeometry x="100" y="560" width="130" height="30" as="geometry" />
        </mxCell>
        <mxCell id="spPprOGRTO-mnFSZIr9q-4" value="页签管理" style="rounded=0;whiteSpace=wrap;html=1;fillColor=#f8cecc;strokeColor=#b85450;" vertex="1" parent="1">
          <mxGeometry x="100" y="640" width="130" height="40" as="geometry" />
        </mxCell>
        <mxCell id="spPprOGRTO-mnFSZIr9q-18" value="" style="edgeStyle=orthogonalEdgeStyle;rounded=0;orthogonalLoop=1;jettySize=auto;html=1;" edge="1" parent="1" source="spPprOGRTO-mnFSZIr9q-5" target="spPprOGRTO-mnFSZIr9q-17">
          <mxGeometry relative="1" as="geometry" />
        </mxCell>
        <mxCell id="spPprOGRTO-mnFSZIr9q-5" value="属性管理" style="rounded=0;whiteSpace=wrap;html=1;fillColor=#f8cecc;strokeColor=#b85450;" vertex="1" parent="1">
          <mxGeometry x="100" y="690" width="130" height="40" as="geometry" />
        </mxCell>
        <mxCell id="spPprOGRTO-mnFSZIr9q-6" value="分类管理" style="rounded=0;whiteSpace=wrap;html=1;fillColor=#f8cecc;strokeColor=#b85450;" vertex="1" parent="1">
          <mxGeometry x="100" y="590" width="130" height="40" as="geometry" />
        </mxCell>
        <mxCell id="spPprOGRTO-mnFSZIr9q-7" value="属性联动" style="rounded=0;whiteSpace=wrap;html=1;fillColor=#f8cecc;strokeColor=#b85450;" vertex="1" parent="1">
          <mxGeometry x="100" y="740" width="130" height="40" as="geometry" />
        </mxCell>
        <mxCell id="spPprOGRTO-mnFSZIr9q-9" value="流程管理" style="rounded=0;whiteSpace=wrap;html=1;fillColor=#f8cecc;strokeColor=#b85450;" vertex="1" parent="1">
          <mxGeometry x="100" y="790" width="130" height="40" as="geometry" />
        </mxCell>
        <mxCell id="spPprOGRTO-mnFSZIr9q-10" value="" style="rounded=0;whiteSpace=wrap;html=1;fillColor=#dae8fc;strokeColor=#6c8ebf;" vertex="1" parent="1">
          <mxGeometry x="560" y="560" width="150" height="280" as="geometry" />
        </mxCell>
        <mxCell id="spPprOGRTO-mnFSZIr9q-11" value="产品" style="rounded=0;whiteSpace=wrap;html=1;fillColor=#f8cecc;strokeColor=#b85450;" vertex="1" parent="1">
          <mxGeometry x="570" y="640" width="130" height="40" as="geometry" />
        </mxCell>
        <mxCell id="spPprOGRTO-mnFSZIr9q-12" value="文档" style="rounded=0;whiteSpace=wrap;html=1;fillColor=#f8cecc;strokeColor=#b85450;" vertex="1" parent="1">
          <mxGeometry x="570" y="690" width="130" height="40" as="geometry" />
        </mxCell>
        <mxCell id="spPprOGRTO-mnFSZIr9q-13" value="物件" style="rounded=0;whiteSpace=wrap;html=1;fillColor=#f8cecc;strokeColor=#b85450;" vertex="1" parent="1">
          <mxGeometry x="570" y="590" width="130" height="40" as="geometry" />
        </mxCell>
        <mxCell id="spPprOGRTO-mnFSZIr9q-14" value="变更" style="rounded=0;whiteSpace=wrap;html=1;fillColor=#f8cecc;strokeColor=#b85450;" vertex="1" parent="1">
          <mxGeometry x="570" y="740" width="130" height="40" as="geometry" />
        </mxCell>
        <mxCell id="spPprOGRTO-mnFSZIr9q-15" value="BOM" style="rounded=0;whiteSpace=wrap;html=1;fillColor=#f8cecc;strokeColor=#b85450;" vertex="1" parent="1">
          <mxGeometry x="570" y="790" width="130" height="40" as="geometry" />
        </mxCell>
        <mxCell id="spPprOGRTO-mnFSZIr9q-17" value="界面方案配置" style="shape=document;whiteSpace=wrap;html=1;boundedLbl=1;fillColor=#dae8fc;strokeColor=#6c8ebf;rounded=0;" vertex="1" parent="1">
          <mxGeometry x="330" y="670" width="120" height="80" as="geometry" />
        </mxCell>
        <mxCell id="spPprOGRTO-mnFSZIr9q-19" style="edgeStyle=orthogonalEdgeStyle;rounded=0;orthogonalLoop=1;jettySize=auto;html=1;exitX=1;exitY=0.5;exitDx=0;exitDy=0;entryX=0.007;entryY=0.539;entryDx=0;entryDy=0;entryPerimeter=0;" edge="1" parent="1" source="spPprOGRTO-mnFSZIr9q-17" target="spPprOGRTO-mnFSZIr9q-10">
          <mxGeometry relative="1" as="geometry" />
        </mxCell>
      </root>
    </mxGraphModel>
  </diagram>
</mxfile>
